<?xml version="1.0" ?><svg viewBox="0 0 32 32" xmlns="http://www.w3.org/2000/svg"><defs><style>.cls-1{fill:#34416b;}.cls-2{fill:#e6f6fc;}.cls-3{fill:#445377;}</style></defs><g data-name="Layer 37" id="Layer_37"><rect class="cls-1" height="8" width="10" x="11" y="21"/><rect class="cls-2" height="20" rx="3" width="28" x="2" y="3"/><path class="cls-3" d="M2,18H30a0,0,0,0,1,0,0v2a3,3,0,0,1-3,3H5a3,3,0,0,1-3-3V18a0,0,0,0,1,0,0Z"/><rect class="cls-3" height="3" rx="1.5" width="16" x="8" y="26"/><path class="cls-3" d="M15.5,15a1,1,0,0,1-1-1V10.82L13,8.72l-1.5,2.1V14a1,1,0,0,1-2,0V10.5a.94.94,0,0,1,.19-.58l2.5-3.5a1,1,0,0,1,1.62,0l2.5,3.5a.94.94,0,0,1,.19.58V14A1,1,0,0,1,15.5,15Z"/><path class="cls-3" d="M15.5,12.5h-5a1,1,0,0,1,0-2h5a1,1,0,0,1,0,2Z"/><path class="cls-3" d="M20.5,15a1,1,0,0,1-1-1V7a1,1,0,0,1,2,0v7A1,1,0,0,1,20.5,15Z"/><path class="cls-3" d="M21.5,8h-2a1,1,0,0,1,0-2h2a1,1,0,0,1,0,2Z"/><path class="cls-3" d="M21.5,15h-2a1,1,0,0,1,0-2h2a1,1,0,0,1,0,2Z"/></g></svg>