<?xml version="1.0" ?><svg id="Layer_1_1_" style="enable-background:new 0 0 64 64;" version="1.1" viewBox="0 0 64 64" xml:space="preserve" xmlns="http://www.w3.org/2000/svg" xmlns:xlink="http://www.w3.org/1999/xlink"><polygon points="40,55 32,62 24,55 28,55 28,48 36,48 36,55 " style="fill:#91CBD7;"/><rect height="2" style="fill:#68607C;" width="11" x="46" y="33"/><polygon points="51.414,30 46,30 46,28 50.586,28 54.586,24 57,24 57,26 55.414,26 " style="fill:#68607C;"/><polygon points="57,44 54.586,44 50.586,40 46,40 46,38 51.414,38 55.414,42 57,42 " style="fill:#68607C;"/><rect height="2" style="fill:#68607C;" width="11" x="7" y="33"/><polygon points="18,30 12.586,30 8.586,26 7,26 7,24 9.414,24 13.414,28 18,28 " style="fill:#68607C;"/><polygon points="9.414,44 7,44 7,42 8.586,42 12.586,38 18,38 18,40 13.414,40 " style="fill:#68607C;"/><path d="M48,45c0,2.21-1.79,4-4,4H20c-2.21,0-4-1.79-4-4V23c0-2.21,1.79-4,4-4h24c2.21,0,4,1.79,4,4V45z" style="fill:#F69489;"/><circle cx="5" cy="43" r="3" style="fill:#FFD086;"/><circle cx="5" cy="34" r="3" style="fill:#FFD086;"/><circle cx="5" cy="25" r="3" style="fill:#FFD086;"/><circle cx="59" cy="43" r="3" style="fill:#FFD086;"/><circle cx="59" cy="25" r="3" style="fill:#FFD086;"/><circle cx="59" cy="34" r="3" style="fill:#FFD086;"/><path d="M41.91,35.27l-2.22,0.91c-0.17,0.6-0.41,1.18-0.71,1.72l0.92,2.21c-0.52,0.67-1.12,1.27-1.79,1.79  l-2.21-0.92c-0.54,0.3-1.12,0.54-1.72,0.71l-0.91,2.22C32.85,43.96,32.43,44,32,44s-0.85-0.04-1.27-0.09l-0.91-2.22  c-0.6-0.17-1.18-0.41-1.72-0.71l-2.21,0.92c-0.67-0.52-1.27-1.12-1.79-1.79l0.92-2.21c-0.3-0.54-0.54-1.12-0.71-1.72l-2.22-0.91  C22.04,34.85,22,34.43,22,34s0.04-0.85,0.09-1.27l2.22-0.91c0.17-0.6,0.41-1.18,0.71-1.72l-0.92-2.21c0.52-0.67,1.12-1.27,1.79-1.79  l2.21,0.92c0.54-0.3,1.12-0.54,1.72-0.71l0.91-2.22C31.15,24.04,31.57,24,32,24s0.85,0.04,1.27,0.09l0.91,2.22  c0.6,0.17,1.18,0.41,1.72,0.71l2.21-0.92c0.67,0.52,1.27,1.12,1.79,1.79l-0.92,2.21c0.3,0.54,0.54,1.12,0.71,1.72l2.22,0.91  C41.96,33.15,42,33.57,42,34S41.96,34.85,41.91,35.27z" style="fill:#ED6571;"/><polygon points="32,18.414 27.293,13.707 28.707,12.293 32,15.586 35.293,12.293 36.707,13.707 " style="fill:#68607C;"/><rect height="9" style="fill:#68607C;" width="2" x="31" y="8"/><polygon points="38,2 38,9 32,9 26,9 26,2 " style="fill:#FAC7A4;"/><rect height="2" style="fill:#68607C;" width="2" x="31" y="29"/><rect height="2" style="fill:#68607C;" width="2" x="31" y="37"/><rect height="2" style="fill:#68607C;" width="2" x="35" y="33"/><rect height="2" style="fill:#68607C;" width="2" x="27" y="33"/><rect height="2" style="fill:#68607C;" width="2" x="31" y="33"/></svg>