<?xml version="1.0" ?><svg id="Layer_1" style="enable-background:new 0 0 64 64;" version="1.1" viewBox="0 0 64 64" xml:space="preserve" xmlns="http://www.w3.org/2000/svg" xmlns:xlink="http://www.w3.org/1999/xlink"><style type="text/css">
	.st0{fill:none;stroke:#D9DCE1;stroke-width:8.595;stroke-linecap:round;stroke-miterlimit:10;}
	.st1000{fill:#D9DCE1;}
	.st2{fill:none;stroke:#D9DCE1;stroke-width:9.2561;stroke-linecap:round;stroke-miterlimit:10;}
	.st3{fill:none;stroke:#56AAFF;stroke-width:9.9179;stroke-linecap:round;stroke-miterlimit:10;}
	.st4000{fill:#56AAFF;}
	.st5{fill-rule:evenodd;clip-rule:evenodd;fill:#56AAFF;}
	.st6{fill-rule:evenodd;clip-rule:evenodd;fill:#D9DCE1;}
	.st7{fill-rule:evenodd;clip-rule:evenodd;fill:#0478ED;}
	.st8{fill-rule:evenodd;clip-rule:evenodd;fill:none;stroke:#FFFFFF;stroke-width:3;stroke-miterlimit:10;}
	.st9{fill:none;stroke:#0478ED;stroke-width:3;stroke-miterlimit:10;}
	.st10{fill:none;stroke:#0478ED;stroke-width:3;stroke-linecap:round;stroke-miterlimit:10;}
	.st11{fill:none;stroke:#56AAFF;stroke-width:4;stroke-linecap:square;stroke-miterlimit:10;}
	.st1200{fill:#0478ED;}
	.st1300{fill:#FFFFFF;}
	.st14{fill:none;stroke:#D9DCE1;stroke-width:3;stroke-linecap:round;stroke-linejoin:round;stroke-miterlimit:10;}
	.st1500{fill:none;stroke:#FFFFFF;stroke-width:2;stroke-miterlimit:10;}
	.st16{fill:none;stroke:#D9DCE1;stroke-width:2;stroke-linecap:square;stroke-miterlimit:10;}
	.st17{fill:none;stroke:#D9DCE1;stroke-width:11.1549;stroke-linecap:round;stroke-miterlimit:10;}
	.st18{fill:none;stroke:#FFFFFF;stroke-width:2;stroke-linecap:round;stroke-linejoin:round;stroke-miterlimit:10;}
	.st19{fill:none;stroke:#FFFFFF;stroke-linecap:round;stroke-linejoin:round;stroke-miterlimit:10;}
	.st20{fill:none;stroke:#0478ED;stroke-width:2;stroke-miterlimit:10;}
	.st21{fill:none;stroke:#FFFFFF;stroke-width:2;stroke-linecap:square;stroke-miterlimit:10;}
	.st22{fill:none;stroke:#0478ED;stroke-width:2;stroke-linecap:square;stroke-miterlimit:10;}
	.st23{fill:none;stroke:#0478ED;stroke-width:2;stroke-linecap:round;stroke-miterlimit:10;}
	.st24{fill:none;stroke:#0478ED;stroke-width:3;stroke-linecap:square;stroke-miterlimit:10;}
	.st25{fill:none;stroke:#56AAFF;stroke-width:3;stroke-linecap:round;stroke-miterlimit:10;}
	.st26{fill:none;stroke:#FFFFFF;stroke-width:2;stroke-linecap:round;stroke-linejoin:round;stroke-miterlimit:10;stroke-dasharray:0.1,4.5937;}
	.st27{fill:none;stroke:#D9DCE1;stroke-width:9.9169;stroke-linecap:round;stroke-miterlimit:10;}
	.st28{fill:none;stroke:#56AAFF;stroke-width:10.6259;stroke-linecap:round;stroke-miterlimit:10;}
	.st29{fill:none;stroke:#FFFFFF;stroke-width:3;stroke-miterlimit:10;}
	.st30{fill:none;stroke:#56AAFF;stroke-width:3;stroke-miterlimit:10;}
	.st31{fill:none;stroke:#FFFFFF;stroke-width:3;stroke-linecap:round;stroke-linejoin:round;stroke-miterlimit:10;}
	.st32{fill:none;stroke:#FFFFFF;stroke-width:4;stroke-miterlimit:10;}
	.st33{fill:none;stroke:#0478ED;stroke-width:2;stroke-miterlimit:10;stroke-dasharray:2,2;}
	.st34{fill:none;stroke:#FFFFFF;stroke-width:3;stroke-linecap:square;stroke-miterlimit:10;}
	.st35{fill:none;stroke:#FFFFFF;stroke-width:2;stroke-linecap:square;stroke-linejoin:bevel;stroke-miterlimit:10;}
	.st36{fill:none;stroke:#56AAFF;stroke-width:11.1549;stroke-linecap:round;stroke-miterlimit:10;}
	.st37{fill:none;stroke:#0478ED;stroke-width:4;stroke-linecap:round;stroke-linejoin:round;stroke-miterlimit:10;}
	.st38{fill:none;stroke:#D9DCE1;stroke-width:3;stroke-miterlimit:10;}
	.st39{fill:none;stroke:#56AAFF;stroke-width:2;stroke-miterlimit:10;}
	.st40{fill-rule:evenodd;clip-rule:evenodd;fill:none;stroke:#FFFFFF;stroke-width:2;stroke-miterlimit:10;}
	.st41{fill-rule:evenodd;clip-rule:evenodd;fill:none;stroke:#D9DCE1;stroke-width:3;stroke-miterlimit:10;}
	.st42{fill-rule:evenodd;clip-rule:evenodd;fill:none;stroke:#0478ED;stroke-width:3;stroke-miterlimit:10;}
	.st43{fill-rule:evenodd;clip-rule:evenodd;fill:#FFFFFF;}
	.st44{fill:none;stroke:#D9DCE1;stroke-width:2;stroke-miterlimit:10;}
	.st45{fill:none;stroke:#56AAFF;stroke-width:5;stroke-miterlimit:10;}
	.st46{fill:none;stroke:#0478ED;stroke-width:3;stroke-linecap:round;stroke-linejoin:round;stroke-miterlimit:10;}
	.st47{fill:none;stroke:#D9DCE1;stroke-width:4;stroke-miterlimit:10;}
	.st48{fill:none;stroke:#56AAFF;stroke-width:4;stroke-miterlimit:10;}
	.st49{fill:none;stroke:#0478ED;stroke-width:2;stroke-linejoin:round;stroke-miterlimit:10;}
	.st50{fill:none;stroke:#0478ED;stroke-width:4;stroke-miterlimit:10;}
	.st51{fill:none;stroke:#D9DCE1;stroke-width:4;stroke-linecap:round;stroke-linejoin:round;stroke-miterlimit:10;}
	.st52{fill:none;stroke:#0478ED;stroke-width:10.4595;stroke-linecap:square;stroke-miterlimit:10;}
	.st53{fill:none;stroke:#56AAFF;stroke-width:10.4595;stroke-linecap:square;stroke-miterlimit:10;}
	.st54{fill:none;stroke:#0478ED;stroke-width:2;stroke-linecap:square;stroke-linejoin:round;stroke-miterlimit:10;}
	.st55{fill:none;stroke:#FFFFFF;stroke-width:4;stroke-linecap:round;stroke-linejoin:round;stroke-miterlimit:10;}
	.st56{fill:none;stroke:#FFFFFF;stroke-width:1.8022;stroke-linecap:square;stroke-miterlimit:10;}
	.st57{fill-rule:evenodd;clip-rule:evenodd;fill:none;stroke:#0478ED;stroke-width:2;stroke-miterlimit:10;}
	.st58{fill:none;stroke:#56AAFF;stroke-width:3;stroke-linecap:round;stroke-linejoin:round;stroke-miterlimit:10;}
	.st59{fill:none;stroke:#56AAFF;stroke-width:4;stroke-linecap:round;stroke-linejoin:round;stroke-miterlimit:10;}
	.st60{fill:none;stroke:#FFFFFF;stroke-width:4;stroke-linecap:square;stroke-miterlimit:10;}
	.st61{fill:#4A4A70;}
	.st62{fill:none;stroke:#0478ED;stroke-width:10.6259;stroke-linecap:square;stroke-miterlimit:10;}
	.st63{fill:none;stroke:#0478ED;stroke-width:10.6259;stroke-linecap:round;stroke-miterlimit:10;}
	.st64{fill:none;}
	.st65{fill:none;stroke:#D9DCE1;stroke-width:2;stroke-linecap:round;stroke-miterlimit:10;}
	.st66{fill:none;stroke:#0478ED;stroke-width:9.5058;stroke-linecap:round;stroke-miterlimit:10;}
	.st67{fill:none;stroke:#FFFFFF;stroke-width:1.9258;stroke-linecap:square;stroke-miterlimit:10;}
</style><rect class="st1200" height="6" width="8" x="28" y="44"/><path class="st1000" d="M55,39H9V14c0-1.1,0.9-2,2-2h42c1.1,0,2,0.9,2,2V39z"/><path class="st4000" d="M55,39H9v4c0,1.1,0.9,2,2,2h42c1.1,0,2-0.9,2-2V39z"/><path class="st4000" d="M40,49H24c-1.1,0-2,0.9-2,2v1h20v-1C42,49.9,41.1,49,40,49z"/><path class="st1500" d="M24,28c0,1.1-0.9,2-2,2l0,0c-1.1,0-2-0.9-2-2v-3c0-1.1,0.9-2,2-2l0,0c1.1,0,2,0.9,2,2"/><path class="st1500" d="M48,28c0,1.1-0.9,2-2,2l0,0c-1.1,0-2-0.9-2-2v-3c0-1.1,0.9-2,2-2l0,0c1.1,0,2,0.9,2,2v1h-4"/><path class="st1500" d="M32,28c0,1.1-0.9,2-2,2l0,0c-1.1,0-2-0.9-2-2v-3c0-1.1,0.9-2,2-2l0,0c1.1,0,2,0.9,2,2V28z"/><path class="st1500" d="M40,28c0,1.1-0.9,2-2,2l0,0c-1.1,0-2-0.9-2-2v-3c0-1.1,0.9-2,2-2l0,0c1.1,0,2,0.9,2,2V28z"/><line class="st1500" x1="40" x2="40" y1="19" y2="26"/><circle class="st1300" cx="16.5" cy="21.5" r="1.5"/></svg>