<?xml version="1.0" ?><svg id="Layer_1_1_" style="enable-background:new 0 0 64 64;" version="1.1" viewBox="0 0 64 64" xml:space="preserve" xmlns="http://www.w3.org/2000/svg" xmlns:xlink="http://www.w3.org/1999/xlink"><path d="M54,2v52H10v4c0,1.1-0.45,2.1-1.17,2.83C8.1,61.55,7.1,62,6,62c-2.21,0-4-1.79-4-4V2H54z" style="fill:#FFE5CA;"/><path d="M62,54v4c0,2.21-1.79,4-4,4H6c1.1,0,2.1-0.45,2.83-1.17C9.55,60.1,10,59.1,10,58v-4h44H62z" style="fill:#FAC7A4;"/><rect height="5" style="fill:#68607C;" width="2" x="24" y="14"/><rect height="7" style="fill:#68607C;" width="2" x="24" y="25"/><rect height="6" style="fill:#68607C;" width="2" x="24" y="38"/><polygon points="48,36 30,36 30,34 46,34 46,23 33,23 33,21 48,21 " style="fill:#68607C;"/><rect height="2" style="fill:#68607C;" width="2" x="42" y="30"/><rect height="2" style="fill:#68607C;" width="2" x="38" y="30"/><rect height="2" style="fill:#68607C;" width="2" x="34" y="30"/><rect height="2" style="fill:#68607C;" width="7" x="12" y="10"/><rect height="2" style="fill:#68607C;" width="2" x="8" y="10"/><rect height="8" style="fill:#F69489;" width="18" x="16" y="18"/><polygon points="34,35 25,39 16,35 25,31 " style="fill:#91CBD7;"/><path d="M28,15h-6c-2.209,0-4-1.791-4-4v0c0-2.209,1.791-4,4-4h6c2.209,0,4,1.791,4,4v0  C32,13.209,30.209,15,28,15z" style="fill:#FFD086;"/><path d="M31,49H19c-1.657,0-3-1.343-3-3v0c0-1.657,1.343-3,3-3h12c1.657,0,3,1.343,3,3v0  C34,47.657,32.657,49,31,49z" style="fill:#ED6571;"/></svg>