<?xml version="1.0" ?><svg viewBox="0 0 32 32" xmlns="http://www.w3.org/2000/svg"><defs><style>.cls-1{fill:#34416b;}.cls-2{fill:#e6f6fc;}.cls-3{fill:#445377;}</style></defs><g data-name="Layer 14" id="Layer_14"><rect class="cls-1" height="8" width="10" x="11" y="21"/><rect class="cls-2" height="20" rx="3" width="28" x="2" y="3"/><path class="cls-3" d="M2,18H30a0,0,0,0,1,0,0v2a3,3,0,0,1-3,3H5a3,3,0,0,1-3-3V18A0,0,0,0,1,2,18Z"/><rect class="cls-3" height="3" rx="1.5" width="16" x="8" y="26"/><rect class="cls-3" height="2" width="4" x="12.24" y="10.66"/><polygon class="cls-3" points="6 8.41 7.41 9.83 6 11.24 7.41 12.66 10.24 9.83 7.41 7 6 8.41"/></g></svg>