<?xml version="1.0" ?><svg viewBox="0 0 32 32" xmlns="http://www.w3.org/2000/svg"><defs><style>.cls-1{fill:#f7924d;}.cls-2{fill:#f7cd4b;}</style></defs><g data-name="Layer 13" id="Layer_13"><circle class="cls-1" cx="14" cy="16" r="12"/><rect class="cls-1" height="24" width="4" x="14" y="4"/><circle class="cls-2" cx="18" cy="16" r="12"/><circle class="cls-1" cx="18" cy="16" r="8"/><path class="cls-2" d="M20.4,19.85H15.6A.75.75,0,0,1,15,18.68a8.76,8.76,0,0,0,1.47-4.86V13.3a2.15,2.15,0,1,1,4.3,0v.2a.75.75,0,0,1-1.5,0v-.2a.65.65,0,0,0-1.3,0v.52a10.28,10.28,0,0,1-1.05,4.53h3.5a.75.75,0,0,1,0,1.5Z"/><path class="cls-2" d="M18.8,16.65H15.6a.75.75,0,1,1,0-1.5h3.2a.75.75,0,0,1,0,1.5Z"/></g></svg>