<?xml version="1.0" ?><svg id="Layer_1_1_" style="enable-background:new 0 0 64 64;" version="1.1" viewBox="0 0 64 64" xml:space="preserve" xmlns="http://www.w3.org/2000/svg" xmlns:xlink="http://www.w3.org/1999/xlink"><path d="M61,54v4c0,2.21-1.79,4-4,4H7c1.1,0,2.1-0.45,2.83-1.17C10.55,60.1,11,59.1,11,58v-4h42H61z" style="fill:#FAC7A4;"/><path d="M53,54H11v4c0,1.1-0.45,2.1-1.17,2.83C9.1,61.55,8.1,62,7,62c-2.21,0-4-1.79-4-4V2h50V54z" style="fill:#FFE5CA;"/><path d="M37.86,15.93l-5.95,5.56C31.34,21.18,30.69,21,30,21c-0.7,0-1.35,0.18-1.92,0.49l-5.96-5.54  C24.22,14.11,26.98,13,30,13C33.01,13,35.76,14.1,37.86,15.93z" style="fill:#FFE5CA;"/><polygon points="61,41.2 57.73,46.23 53,43.16 45.15,38.06 46.79,35.54 48.43,33.03 53,36 " style="fill:#ED6571;"/><path d="M40.41,19.02C41.42,20.78,42,22.82,42,25c0,2.3-0.65,4.45-1.76,6.28C38.12,34.71,34.33,37,30,37  c-6.63,0-12-5.37-12-12c0-2.17,0.57-4.2,1.57-5.95L26,25.02c0.01,2.2,1.8,3.98,4,3.98c2.21,0,4-1.79,4-4L40.41,19.02z" style="fill:#FFE5CA;"/><circle cx="30" cy="25" r="12" style="fill:#FAC7A4;"/><path d="M40.41,19.02L34,25c0-1.52-0.84-2.83-2.09-3.51l5.95-5.56c0.51,0.44,0.97,0.92,1.4,1.43  C39.69,17.88,40.08,18.43,40.41,19.02z" style="fill:#ED6571;"/><path d="M28.08,21.49C26.84,22.17,26,23.49,26,25c0,0.01,0,0.01,0,0.02l-6.43-5.97  c0.34-0.59,0.72-1.15,1.15-1.67c0.43-0.51,0.9-0.99,1.4-1.43L28.08,21.49z" style="fill:#ED6571;"/><path d="M45,10c1.1,0,2,0.9,2,2s-0.9,2-2,2c-0.57,0-1.09-0.25-1.46-0.64C43.2,13.01,43,12.53,43,12  C43,10.9,43.9,10,45,10z" style="fill:#91CBD7;"/><path d="M16,11c1.1,0,2,0.9,2,2c0,0.53-0.2,1.01-0.54,1.36C17.09,14.75,16.57,15,16,15  c-0.34,0-0.66-0.08-0.94-0.24C14.43,14.43,14,13.76,14,13C14,11.9,14.9,11,16,11z" style="fill:#91CBD7;"/><path d="M9.94,26.24c0.63,0.33,1.06,1,1.06,1.76c0,1.1-0.9,2-2,2s-2-0.9-2-2s0.9-2,2-2  C9.34,26,9.66,26.08,9.94,26.24z" style="fill:#91CBD7;"/><path d="M26,25c0-1.51,0.84-2.83,2.08-3.51C28.65,21.18,29.3,21,30,21c0.69,0,1.34,0.18,1.91,0.49  C33.16,22.17,34,23.48,34,25c0,2.21-1.79,4-4,4c-2.2,0-3.99-1.78-4-3.98C26,25.01,26,25.01,26,25z" style="fill:#4E9BB9;"/><rect height="4.444" style="fill:#F69489;" transform="matrix(0.6795 -0.7337 0.7337 0.6795 -5.5252 19.0922)" width="2" x="18.09" y="13.648"/><rect height="2" style="fill:#F69489;" transform="matrix(0.7306 -0.6828 0.6828 0.7306 0.6642 32.4042)" width="5.858" x="38.471" y="14.361"/><rect height="2" style="fill:#F69489;" transform="matrix(0.4073 -0.9133 0.9133 0.4073 -11.3138 23.5661)" width="12.57" x="6.215" y="19.5"/><path d="M30,38c-7.168,0-13-5.832-13-13s5.832-13,13-13s13,5.832,13,13S37.168,38,30,38z M30,14  c-6.065,0-11,4.935-11,11s4.935,11,11,11s11-4.935,11-11S36.065,14,30,14z" style="fill:#68607C;"/><circle cx="45" cy="12" r="3" style="fill:#91CBD7;"/><circle cx="16" cy="13" r="3" style="fill:#91CBD7;"/><circle cx="9" cy="28" r="3" style="fill:#91CBD7;"/><rect height="7.813" style="fill:#68607C;" transform="matrix(0.5452 -0.8383 0.8383 0.5452 -8.2173 51.6737)" width="2" x="42.515" y="29.504"/><rect height="6" style="fill:#68607C;" width="2" x="9" y="42"/><rect height="14" style="fill:#68607C;" width="2" x="13" y="34"/><rect height="10" style="fill:#68607C;" width="2" x="17" y="38"/><rect height="7" style="fill:#68607C;" width="2" x="21" y="41"/><rect height="5" style="fill:#68607C;" width="2" x="25" y="43"/><rect height="8" style="fill:#68607C;" width="2" x="29" y="40"/><rect height="6" style="fill:#68607C;" width="2" x="33" y="42"/><rect height="9" style="fill:#68607C;" width="2" x="37" y="39"/><rect height="8" style="fill:#68607C;" width="2" x="41" y="40"/><rect height="5" style="fill:#68607C;" width="2" x="45" y="43"/><rect height="2" style="fill:#68607C;" width="42" x="7" y="47"/></svg>